<mxfile host="app.diagrams.net" agent="Mozilla/5.0 (Windows NT 10.0; Win64; x64) AppleWebKit/537.36 (KHTML, like Gecko) Chrome/136.0.0.0 Safari/537.36" version="26.2.14">
  <diagram name="Seite-1" id="o9Cc-xWVdQbh3j_FQZls">
    <mxGraphModel dx="1968" dy="1056" grid="1" gridSize="10" guides="1" tooltips="1" connect="1" arrows="1" fold="1" page="1" pageScale="1" pageWidth="827" pageHeight="1169" math="0" shadow="0">
      <root>
        <mxCell id="0" />
        <mxCell id="1" parent="0" />
        <mxCell id="qgq5JgrYsX4Nd7nGGl7e-13" style="edgeStyle=orthogonalEdgeStyle;rounded=0;orthogonalLoop=1;jettySize=auto;html=1;entryX=0;entryY=0.5;entryDx=0;entryDy=0;" edge="1" parent="1" source="qgq5JgrYsX4Nd7nGGl7e-2" target="qgq5JgrYsX4Nd7nGGl7e-5">
          <mxGeometry relative="1" as="geometry" />
        </mxCell>
        <mxCell id="qgq5JgrYsX4Nd7nGGl7e-14" style="edgeStyle=orthogonalEdgeStyle;rounded=0;orthogonalLoop=1;jettySize=auto;html=1;entryX=0;entryY=0.5;entryDx=0;entryDy=0;" edge="1" parent="1" source="qgq5JgrYsX4Nd7nGGl7e-2" target="qgq5JgrYsX4Nd7nGGl7e-12">
          <mxGeometry relative="1" as="geometry" />
        </mxCell>
        <mxCell id="qgq5JgrYsX4Nd7nGGl7e-15" style="edgeStyle=orthogonalEdgeStyle;rounded=0;orthogonalLoop=1;jettySize=auto;html=1;" edge="1" parent="1" source="qgq5JgrYsX4Nd7nGGl7e-2" target="qgq5JgrYsX4Nd7nGGl7e-10">
          <mxGeometry relative="1" as="geometry" />
        </mxCell>
        <mxCell id="qgq5JgrYsX4Nd7nGGl7e-16" style="edgeStyle=orthogonalEdgeStyle;rounded=0;orthogonalLoop=1;jettySize=auto;html=1;" edge="1" parent="1" source="qgq5JgrYsX4Nd7nGGl7e-2" target="qgq5JgrYsX4Nd7nGGl7e-9">
          <mxGeometry relative="1" as="geometry" />
        </mxCell>
        <mxCell id="qgq5JgrYsX4Nd7nGGl7e-17" style="edgeStyle=orthogonalEdgeStyle;rounded=0;orthogonalLoop=1;jettySize=auto;html=1;entryX=0;entryY=0.5;entryDx=0;entryDy=0;" edge="1" parent="1" source="qgq5JgrYsX4Nd7nGGl7e-2" target="qgq5JgrYsX4Nd7nGGl7e-8">
          <mxGeometry relative="1" as="geometry" />
        </mxCell>
        <mxCell id="qgq5JgrYsX4Nd7nGGl7e-18" style="edgeStyle=orthogonalEdgeStyle;rounded=0;orthogonalLoop=1;jettySize=auto;html=1;entryX=0;entryY=0.5;entryDx=0;entryDy=0;" edge="1" parent="1" source="qgq5JgrYsX4Nd7nGGl7e-2" target="qgq5JgrYsX4Nd7nGGl7e-11">
          <mxGeometry relative="1" as="geometry" />
        </mxCell>
        <mxCell id="qgq5JgrYsX4Nd7nGGl7e-2" value="&lt;font style=&quot;font-size: 23px;&quot;&gt;Benutzer&lt;/font&gt;" style="shape=umlActor;verticalLabelPosition=bottom;verticalAlign=top;html=1;outlineConnect=0;" vertex="1" parent="1">
          <mxGeometry x="60" y="370" width="60" height="160" as="geometry" />
        </mxCell>
        <mxCell id="qgq5JgrYsX4Nd7nGGl7e-3" value="" style="swimlane;startSize=0;" vertex="1" parent="1">
          <mxGeometry x="170" y="80" width="450" height="780" as="geometry" />
        </mxCell>
        <mxCell id="qgq5JgrYsX4Nd7nGGl7e-5" value="Benutzer einloggen" style="ellipse;whiteSpace=wrap;html=1;" vertex="1" parent="qgq5JgrYsX4Nd7nGGl7e-3">
          <mxGeometry x="165" y="50" width="120" height="80" as="geometry" />
        </mxCell>
        <mxCell id="qgq5JgrYsX4Nd7nGGl7e-8" value=" TO-DO aktualisieren" style="ellipse;whiteSpace=wrap;html=1;" vertex="1" parent="qgq5JgrYsX4Nd7nGGl7e-3">
          <mxGeometry x="165" y="530" width="120" height="80" as="geometry" />
        </mxCell>
        <mxCell id="qgq5JgrYsX4Nd7nGGl7e-9" value="TO-DOs anzeigen" style="ellipse;whiteSpace=wrap;html=1;" vertex="1" parent="qgq5JgrYsX4Nd7nGGl7e-3">
          <mxGeometry x="165" y="400" width="120" height="80" as="geometry" />
        </mxCell>
        <mxCell id="qgq5JgrYsX4Nd7nGGl7e-10" value="TO-DO hinzufÃ¼gen" style="ellipse;whiteSpace=wrap;html=1;" vertex="1" parent="qgq5JgrYsX4Nd7nGGl7e-3">
          <mxGeometry x="165" y="290" width="120" height="80" as="geometry" />
        </mxCell>
        <mxCell id="qgq5JgrYsX4Nd7nGGl7e-11" value="TO-DO entfernen" style="ellipse;whiteSpace=wrap;html=1;" vertex="1" parent="qgq5JgrYsX4Nd7nGGl7e-3">
          <mxGeometry x="165" y="650" width="120" height="80" as="geometry" />
        </mxCell>
        <mxCell id="qgq5JgrYsX4Nd7nGGl7e-12" value="Benutzer einloggen" style="ellipse;whiteSpace=wrap;html=1;" vertex="1" parent="qgq5JgrYsX4Nd7nGGl7e-3">
          <mxGeometry x="165" y="160" width="120" height="80" as="geometry" />
        </mxCell>
      </root>
    </mxGraphModel>
  </diagram>
</mxfile>
